<?xml version="1.0" encoding="utf-8"?>
<!-- Generator: Adobe Illustrator 21.1.0, SVG Export Plug-In . SVG Version: 6.00 Build 0)  -->
<svg version="1.1" id="Capa_1" xmlns="http://www.w3.org/2000/svg" xmlns:xlink="http://www.w3.org/1999/xlink" x="0px" y="0px"
	 viewBox="0 0 512 512" style="enable-background:new 0 0 512 512;" xml:space="preserve">
<style type="text/css">
	.st0{fill:#FF9500;}
</style>
<g>
	<g id="_x32__26_">
		<g>
			<path class="st0" d="M331.9,271.2H180.1c-8.4,0-15.2,6.8-15.2,15.2s6.8,15.2,15.2,15.2h151.9c8.4,0,15.2-6.8,15.2-15.2
				S340.3,271.2,331.9,271.2z M362.3,180.1H149.7c-8.4,0-15.2,6.8-15.2,15.2c0,8.4,6.8,15.2,15.2,15.2h212.6
				c8.4,0,15.2-6.8,15.2-15.2C377.5,186.9,370.7,180.1,362.3,180.1z M256,13C121.8,13,13,108.2,13,225.6
				c0,67.1,35.6,126.9,91.1,165.8V499l106.4-64.6c14.7,2.4,29.9,3.8,45.4,3.8c134.2,0,243-95.2,243-212.6S390.2,13,256,13z
				 M256,407.9c-17.7,0-34.9-2.1-51.3-5.6l-71.5,43l1-70.4c-54.8-33-90.7-87.5-90.7-149.2C43.4,125,138.6,43.4,256,43.4
				S468.6,125,468.6,225.6S373.4,407.9,256,407.9z"/>
		</g>
	</g>
</g>
</svg>
