<?xml version="1.0" encoding="utf-8"?>
<!-- Generator: Adobe Illustrator 21.1.0, SVG Export Plug-In . SVG Version: 6.00 Build 0)  -->
<svg version="1.1" id="Layer_1" xmlns="http://www.w3.org/2000/svg" xmlns:xlink="http://www.w3.org/1999/xlink" x="0px" y="0px"
	 viewBox="0 0 512 512" style="enable-background:new 0 0 512 512;" xml:space="preserve">
<style type="text/css">
	.st0{fill:#724C1D;stroke:#724D1E;stroke-width:4;stroke-miterlimit:10;}
</style>
<g>
	<g>
		<path class="st0" d="M498.8,189.9L373.1,64.2c-4.2-4.2-11.1-4.2-15.3,0l-33.1,33.1c-2,2-3.2,4.8-3.2,7.7c0,2.9,1.1,5.6,3.2,7.7
			l4.3,4.3l-15.2,15.2c-5.4,5.4-12.2,8.6-21.4,10l-86.4,0.1c-6,0-11.5,1.9-16,5.1l-6.9-6.9l4.2-4.2c2-2,3.2-4.8,3.2-7.7
			c0-2.9-1.1-5.6-3.2-7.7l-33.1-33.1c-4.2-4.2-11.1-4.2-15.3,0L13.2,213.5c-4.2,4.2-4.2,11.1,0,15.3L46.3,262c2,2,4.8,3.2,7.7,3.2
			s5.6-1.1,7.7-3.2l3.6-3.6l15.9,15.9c5.3,5.3,9.3,11.4,12.1,18.3l0.6,1.5c3.9,9.6,9.5,18.3,16.9,25.6l121.9,121.9
			c6.2,6.2,14.4,9.3,22.5,9.3c8.1,0,16.3-3.1,22.5-9.3c3.1-3.1,5.5-6.7,7-10.6c11.7,5.1,25.8,2.9,35.3-6.6c2.9-2.9,5.1-6.1,6.7-9.7
			c12.1,6.5,27.5,4.7,37.7-5.5c10.2-10.2,12.1-25.6,5.6-37.7c3.5-1.5,6.7-3.7,9.5-6.5c0,0,0.1-0.1,0.1-0.1
			c12.5-12.5,12.5-32.8,0-45.2l-0.8-0.8l20.5-20.5c6.1-6.1,14.7-17,19-27.7l0.7-1.6c2.8-6.9,6.8-13,12.1-18.3l15.9-15.9l3.5,3.5
			c2,2,4.8,3.2,7.7,3.2s5.6-1.1,7.7-3.2l33.1-33.1C503.1,201,503.1,194.2,498.8,189.9z M53.9,239l-17.7-17.7l110.4-110.4l17.7,17.7
			L53.9,239z M364.2,349.5C364.1,349.5,364.1,349.6,364.2,349.5c-4.1,4.1-10.4,4-14.4,0c-0.6-0.6-63.4-63-63.4-63
			c-4.2-4.2-11.1-4.2-15.3,0c-4.2,4.2-4.2,11.1,0,15.3c0,0,78.6,78.5,79.1,78.8c2.8,4,2.4,9.6-1.1,13.2c-3.9,4-10.4,4-14.3,0
			l-84-83.5c-4.2-4.2-11.1-4.2-15.3,0c-4.2,4.2-4.2,11.1,0,15.3l70.9,70.9c2.4,3.9,1.8,9.1-1.6,12.5c-1.9,1.9-4.5,3-7.2,3
			c-2.7,0-5.2-1.1-7.2-3l-78-77.6c-4.2-4.2-11.1-4.2-15.3,0c-4.2,4.2-4.2,11.1,0,15.3l66.9,66.9c2.4,3.9,1.8,9.1-1.6,12.5
			c-3.9,3.9-10.4,3.9-14.3,0L126,304.4c-5.3-5.3-9.3-11.4-12.1-18.3l-0.6-1.5c-3.9-9.6-9.5-18.3-16.9-25.6L80.5,243l87.2-87.2
			l10.8,10.8c-0.1,1.1-0.2,2.2-0.2,3.3c0,0.1,0,0.2,0,0.3c0.5,22.4,19,40.6,41.1,40.6l20.4,0L364.1,335
			C368.1,339,368.1,345.5,364.2,349.5z M415.6,235.4c-7.4,7.4-13,16-16.9,25.5l-0.7,1.6c-2.5,6.2-8.3,14.6-14.3,20.5l-20.5,20.5
			L305.7,246c11.1-0.3,19.5-2.1,25-3.8c3.9-1.2,5.7-5.6,3.9-9.2l-3.9-7.8c-1.4-2.8-4.6-4.2-7.5-3.4c-7,1.9-21.2,4.3-41.3,0.2
			l-29.8-29.8l-0.1,0.1c-2-1.9-4.7-3.1-7.7-3.1c0,0,0,0,0,0l-24.9-0.1c-10.4,0-19.1-8.8-19.4-19.5c0.1-3.2,2.8-5.9,6-5.9l87.2-0.1
			c0.5,0,1,0,1.5-0.1c14.3-2,25.5-7.3,34.5-16.2l15.2-15.2l87.2,87.2L415.6,235.4z M458.1,215.4L347.7,105l17.7-17.7l110.4,110.4
			L458.1,215.4z"/>
	</g>
</g>
</svg>
