<?xml version="1.0" encoding="utf-8"?>
<!-- Generator: Adobe Illustrator 21.1.0, SVG Export Plug-In . SVG Version: 6.00 Build 0)  -->
<svg version="1.1" id="Capa_1" xmlns="http://www.w3.org/2000/svg" xmlns:xlink="http://www.w3.org/1999/xlink" x="0px" y="0px"
	 viewBox="0 0 512 512" style="enable-background:new 0 0 512 512;" xml:space="preserve">
<style type="text/css">
	.st0{fill:#724C1D;stroke:#724D1E;stroke-width:6.6992;stroke-miterlimit:10;}
</style>
<path class="st0" d="M494.1,214.5L269.9,39c-3.8-3-8.8-4.7-13.9-4.7c-5.1,0-10.1,1.7-13.9,4.6L17.9,214.5
	c-8.8,6.9-6.9,14.8-6.1,17.1c0.8,2.3,4.2,9.7,15.4,9.7h44.6v216.1c0,11.2,9.1,20.3,20.3,20.3h105c11.2,0,20.3-9.1,20.3-20.3v-96.7
	h77.4v96.7c0,11.2,9.1,20.3,20.3,20.3h105c11.2,0,20.3-9.1,20.3-20.3V241.2h44.6c11.2,0,14.6-7.4,15.4-9.7
	C501.1,229.3,502.9,221.3,494.1,214.5z M436.2,216.9c-11.2,0-20.3,9.1-20.3,20.3v216.1H319v-96.7c0-11.2-9.1-20.3-20.3-20.3h-85.5
	c-11.2,0-20.3,9.1-20.3,20.3v96.7H96.1V237.2c0-11.2-9.1-20.3-20.3-20.3H54.3L256,59.1l201.7,157.8L436.2,216.9L436.2,216.9z"/>
</svg>
