<?xml version="1.0" encoding="utf-8"?>
<!-- Generator: Adobe Illustrator 21.1.0, SVG Export Plug-In . SVG Version: 6.00 Build 0)  -->
<svg version="1.1" id="Capa_1" xmlns="http://www.w3.org/2000/svg" xmlns:xlink="http://www.w3.org/1999/xlink" x="0px" y="0px"
	 viewBox="0 0 512 512" style="enable-background:new 0 0 512 512;" xml:space="preserve">
<style type="text/css">
	.st0{fill:#724C1D;stroke:#724D1E;stroke-width:6.794;stroke-miterlimit:10;}
</style>
<g>
	<g>
		<path class="st0" d="M300.8,7.7c-0.4,0-0.8,0-1.2,0c0,0-0.1,0-0.1,0c-118-4.1-242,64.5-231.3,197.2c0,0.5,0.2,1,0.3,1.5
			c-0.2,1.4-0.2,2.8,0.2,4.4c6.5,30.3-3.5,56.9-28.3,75.5c-1.1,0.8-2,1.8-2.8,2.8c-2.5,1.7-4.5,4.2-5.6,7.2
			c-4.7,13.4-1.1,27,9.6,36.3c1.8,1.5,3.8,2.6,5.9,3.1c6.9,3.8,14.1,6.3,21.6,8.1c-1.5,8.3-0.8,16.7,3.2,24.6
			c-7.5,14.6-2.5,30.6,12.2,39.4c0.8,0.5,1.7,0.9,2.5,1.2c2.5,3,2.7,7.8,1.8,12.4c-0.3,1.4-0.3,2.8-0.2,4.2c-0.1,1.2,0,2.5,0.2,3.8
			c3.9,20.4,21.3,31.7,41.3,32c1.1,0,2.1-0.1,3-0.3c0.9,0,1.9,0,2.9-0.2c32-5.2,68.5-2.3,80.5,32.9c2.4,7,8.8,9.4,14.6,8.5
			c1.9,1.5,4.5,2.3,7.7,2.1c58-4.1,115.5-12.5,173.2-20.2c2-0.3,3.8-0.9,5.3-1.9c7-2.2,12.6-10,8.1-18.4
			c-38.5-71.8,39.5-150.1,54.4-219c0.3-1.5,0.3-2.9,0.2-4.2C495.7,127.4,417.3,18.2,300.8,7.7z M455.4,235.6c-0.2,1-0.2,2.1-0.1,3
			c-16.1,73.8-86.7,145.1-58.7,222.4c-52.5,7.1-104.9,14.4-157.8,18.1c-0.4,0-0.7,0.1-1.1,0.2c-18.9-42-62.8-49.6-106.3-43
			c-0.4-0.1-0.8-0.1-1.3-0.2c-5-0.1-7.5-0.6-11.4-3c0.3,0.1-2-1.7-2-1.7c-0.3-0.3-0.5-0.5-0.7-0.7c0-0.1-0.1-0.4-0.6-1.2
			c-0.7-1.2-1.3-2.8-1.7-4.7c2.2-15.5-2.2-28.9-15.1-38.8c-1-0.8-2.2-1.2-3.4-1.5c-0.4-0.3-0.7-0.6-1.1-1c0.1,0,0-0.1-0.2-0.5
			c0-0.3,0-0.4-0.1-0.4c0.2-0.7,0.3-1.3,0.5-2c0,0,1.9-2.9,2.5-3.8c1.7-2.5,2.1-5.4,1.6-8.3c0.5-2.8,0.1-5.8-1.6-8.2
			c-4.8-6.9-3.8-12.8,0-20.1c5.5-10.4-4.4-19.9-13.2-19c-0.1,0-0.2,0-0.3-0.1c-8.9-1.2-17.5-3.8-25.2-8.4c-0.6-0.3-1.1-0.5-1.6-0.8
			c-0.4-0.6-0.7-1.1-1.1-1.7c-0.1-0.2-0.1-0.3-0.2-0.5c-0.1-0.3-0.1-0.5-0.1-0.7c0-0.6,0-1.2,0-1.7c0-0.2,0.1-0.5,0.2-1.1
			c32.1-25.1,45.9-59.6,38.1-99.9c0-0.5,0.1-1,0-1.5C83.9,85.6,194.8,29.4,299.5,33c0.3,0,0.6,0,0.9-0.1c0.1,0,0.2,0,0.3,0.1
			C400.2,41.9,469.6,138.9,455.4,235.6z"/>
	</g>
</g>
</svg>
